HIERARCHY
ROOT mixamorig:Hips
{
	OFFSET 0.000000 201.639420 0.000000
	CHANNELS 6 Xposition Yposition Zposition Xrotation Yrotation Zrotation
	JOINT mixamorig:Spine
	{
		OFFSET 0.006200 19.524994 -2.481800
		CHANNELS 3 Xrotation Yrotation Zrotation
		JOINT mixamorig:Spine1
		{
			OFFSET -0.000900 22.835007 -2.825400
			CHANNELS 3 Xrotation Yrotation Zrotation
			JOINT mixamorig:Spine2
			{
				OFFSET -0.020600 26.552490 -3.193300
				CHANNELS 3 Xrotation Yrotation Zrotation
				JOINT mixamorig:Neck
				{
					OFFSET -0.060000 30.701813 1.352200
					CHANNELS 3 Xrotation Yrotation Zrotation
					JOINT mixamorig:Head
					{
						OFFSET -0.087200 22.547607 3.670900
						CHANNELS 3 Xrotation Yrotation Zrotation
						JOINT mixamorig:HeadTop_End
						{
							OFFSET -0.830600 40.355194 7.893500
							CHANNELS 3 Xrotation Yrotation Zrotation
							End Site
							{
								OFFSET 0.000000 30.592346 0.000000
							}
						}
						JOINT mixamorig:RightEye
						{
							OFFSET -6.302100 18.118591 16.197100
							CHANNELS 3 Xrotation Yrotation Zrotation
							End Site
							{
								OFFSET 0.000000 30.592346 0.000000
							}
						}
						JOINT mixamorig:LeftEye
						{
							OFFSET 6.741500 18.382690 16.401899
							CHANNELS 3 Xrotation Yrotation Zrotation
							End Site
							{
								OFFSET 0.000000 30.592346 0.000000
							}
						}
					}
				}
				JOINT mixamorig:LeftShoulder
				{
					OFFSET 11.924900 18.230499 1.425400
					CHANNELS 3 Xrotation Yrotation Zrotation
					JOINT mixamorig:LeftArm
					{
						OFFSET 25.435989 -0.697632 -5.229300
						CHANNELS 3 Xrotation Yrotation Zrotation
						JOINT mixamorig:LeftForeArm
						{
							OFFSET 54.684776 0.000000 0.000000
							CHANNELS 3 Xrotation Yrotation Zrotation
							JOINT mixamorig:LeftHand
							{
								OFFSET 55.098175 0.000000 0.000000
								CHANNELS 3 Xrotation Yrotation Zrotation
								JOINT mixamorig:LeftHandMiddle1
								{
									OFFSET 23.369751 0.000000 0.000000
									CHANNELS 3 Xrotation Yrotation Zrotation
									JOINT mixamorig:LeftHandMiddle2
									{
										OFFSET 6.378677 0.000000 0.000000
										CHANNELS 3 Xrotation Yrotation Zrotation
										JOINT mixamorig:LeftHandMiddle3
										{
											OFFSET 6.148331 0.000000 0.000000
											CHANNELS 3 Xrotation Yrotation Zrotation
											JOINT mixamorig:LeftHandMiddle4
											{
												OFFSET 6.582504 0.000000 0.000000
												CHANNELS 3 Xrotation Yrotation Zrotation
												End Site
												{
													OFFSET -1.168900 6.395691 1.028606
												}
											}
										}
									}
								}
								JOINT mixamorig:LeftHandThumb1
								{
									OFFSET 7.235672 -3.848206 5.434273
									CHANNELS 3 Xrotation Yrotation Zrotation
									JOINT mixamorig:LeftHandThumb2
									{
										OFFSET 6.568451 -3.792297 3.792300
										CHANNELS 3 Xrotation Yrotation Zrotation
										JOINT mixamorig:LeftHandThumb3
										{
											OFFSET 6.063080 -3.500519 3.500518
											CHANNELS 3 Xrotation Yrotation Zrotation
											JOINT mixamorig:LeftHandThumb4
											{
												OFFSET 4.793182 -2.767334 2.767349
												CHANNELS 3 Xrotation Yrotation Zrotation
												End Site
												{
													OFFSET 0.101639 6.054260 1.275483
												}
											}
										}
									}
								}
								JOINT mixamorig:LeftHandIndex1
								{
									OFFSET 23.101074 -0.309540 4.992809
									CHANNELS 3 Xrotation Yrotation Zrotation
									JOINT mixamorig:LeftHandIndex2
									{
										OFFSET 6.226883 0.000000 0.000000
										CHANNELS 3 Xrotation Yrotation Zrotation
										JOINT mixamorig:LeftHandIndex3
										{
											OFFSET 6.094330 0.000000 0.000000
											CHANNELS 3 Xrotation Yrotation Zrotation
											JOINT mixamorig:LeftHandIndex4
											{
												OFFSET 5.482605 0.000000 0.000000
												CHANNELS 3 Xrotation Yrotation Zrotation
												End Site
												{
													OFFSET -1.427902 5.233032 0.797164
												}
											}
										}
									}
								}
								JOINT mixamorig:LeftHandRing1
								{
									OFFSET 22.299240 0.021149 -3.964172
									CHANNELS 3 Xrotation Yrotation Zrotation
									JOINT mixamorig:LeftHandRing2
									{
										OFFSET 6.321869 0.000000 0.000000
										CHANNELS 3 Xrotation Yrotation Zrotation
										JOINT mixamorig:LeftHandRing3
										{
											OFFSET 5.899796 0.000000 0.000000
											CHANNELS 3 Xrotation Yrotation Zrotation
											JOINT mixamorig:LeftHandRing4
											{
												OFFSET 6.517899 0.000000 0.000000
												CHANNELS 3 Xrotation Yrotation Zrotation
												End Site
												{
													OFFSET -1.637299 6.232208 0.980890
												}
											}
										}
									}
								}
								JOINT mixamorig:LeftHandPinky1
								{
									OFFSET 20.463791 -0.302338 -8.562233
									CHANNELS 3 Xrotation Yrotation Zrotation
									JOINT mixamorig:LeftHandPinky2
									{
										OFFSET 6.908646 0.000000 0.000000
										CHANNELS 3 Xrotation Yrotation Zrotation
										JOINT mixamorig:LeftHandPinky3
										{
											OFFSET 4.622849 0.000000 0.000000
											CHANNELS 3 Xrotation Yrotation Zrotation
											JOINT mixamorig:LeftHandPinky4
											{
												OFFSET 5.216080 0.000000 0.000000
												CHANNELS 3 Xrotation Yrotation Zrotation
												End Site
												{
													OFFSET -0.606308 5.116241 0.814926
												}
											}
										}
									}
								}
							}
						}
					}
				}
				JOINT mixamorig:RightShoulder
				{
					OFFSET -12.001300 18.284088 1.348900
					CHANNELS 3 Xrotation Yrotation Zrotation
					JOINT mixamorig:RightArm
					{
						OFFSET -25.308500 -0.751312 -5.164599
						CHANNELS 3 Xrotation Yrotation Zrotation
						JOINT mixamorig:RightForeArm
						{
							OFFSET -54.684429 0.000000 0.000000
							CHANNELS 3 Xrotation Yrotation Zrotation
							JOINT mixamorig:RightHand
							{
								OFFSET -55.150291 0.000000 0.000000
								CHANNELS 3 Xrotation Yrotation Zrotation
								JOINT mixamorig:RightHandMiddle1
								{
									OFFSET -23.317566 0.000000 0.000000
									CHANNELS 3 Xrotation Yrotation Zrotation
									JOINT mixamorig:RightHandMiddle2
									{
										OFFSET -6.378403 0.000000 0.000000
										CHANNELS 3 Xrotation Yrotation Zrotation
										JOINT mixamorig:RightHandMiddle3
										{
											OFFSET -6.148193 0.000000 0.000000
											CHANNELS 3 Xrotation Yrotation Zrotation
											JOINT mixamorig:RightHandMiddle4
											{
												OFFSET -6.583389 0.000000 0.000000
												CHANNELS 3 Xrotation Yrotation Zrotation
												End Site
												{
													OFFSET 1.171692 6.395905 1.029786
												}
											}
										}
									}
								}
								JOINT mixamorig:RightHandThumb1
								{
									OFFSET -7.190521 -3.860474 5.435846
									CHANNELS 3 Xrotation Yrotation Zrotation
									JOINT mixamorig:RightHandThumb2
									{
										OFFSET -6.567429 -3.791718 3.791708
										CHANNELS 3 Xrotation Yrotation Zrotation
										JOINT mixamorig:RightHandThumb3
										{
											OFFSET -6.062469 -3.500153 3.500166
											CHANNELS 3 Xrotation Yrotation Zrotation
											JOINT mixamorig:RightHandThumb4
											{
												OFFSET -4.792618 -2.767029 2.767022
												CHANNELS 3 Xrotation Yrotation Zrotation
												End Site
												{
													OFFSET -0.100327 6.053253 1.276754
												}
											}
										}
									}
								}
								JOINT mixamorig:RightHandIndex1
								{
									OFFSET -23.048981 -0.310791 4.992554
									CHANNELS 3 Xrotation Yrotation Zrotation
									JOINT mixamorig:RightHandIndex2
									{
										OFFSET -6.227539 0.000000 0.000000
										CHANNELS 3 Xrotation Yrotation Zrotation
										JOINT mixamorig:RightHandIndex3
										{
											OFFSET -6.095047 0.000000 0.000000
											CHANNELS 3 Xrotation Yrotation Zrotation
											JOINT mixamorig:RightHandIndex4
											{
												OFFSET -5.484772 0.000000 0.000000
												CHANNELS 3 Xrotation Yrotation Zrotation
												End Site
												{
													OFFSET 1.420593 5.237305 0.797056
												}
											}
										}
									}
								}
								JOINT mixamorig:RightHandRing1
								{
									OFFSET -22.246323 0.020569 -3.963762
									CHANNELS 3 Xrotation Yrotation Zrotation
									JOINT mixamorig:RightHandRing2
									{
										OFFSET -6.322128 0.000000 0.000000
										CHANNELS 3 Xrotation Yrotation Zrotation
										JOINT mixamorig:RightHandRing3
										{
											OFFSET -5.900024 0.000000 0.000000
											CHANNELS 3 Xrotation Yrotation Zrotation
											JOINT mixamorig:RightHandRing4
											{
												OFFSET -6.518356 0.000000 0.000000
												CHANNELS 3 Xrotation Yrotation Zrotation
												End Site
												{
													OFFSET 1.636398 6.232697 0.982186
												}
											}
										}
									}
								}
								JOINT mixamorig:RightHandPinky1
								{
									OFFSET -20.411011 -0.303314 -8.561701
									CHANNELS 3 Xrotation Yrotation Zrotation
									JOINT mixamorig:RightHandPinky2
									{
										OFFSET -6.907349 0.000000 0.000000
										CHANNELS 3 Xrotation Yrotation Zrotation
										JOINT mixamorig:RightHandPinky3
										{
											OFFSET -4.623840 0.000000 0.000000
											CHANNELS 3 Xrotation Yrotation Zrotation
											JOINT mixamorig:RightHandPinky4
											{
												OFFSET -5.218353 0.000000 0.000000
												CHANNELS 3 Xrotation Yrotation Zrotation
												End Site
												{
													OFFSET 0.602097 5.118835 0.816273
												}
											}
										}
									}
								}
							}
						}
					}
				}
			}
		}
	}
	JOINT mixamorig:LeftUpLeg
	{
		OFFSET 18.168400 -13.561905 -0.039000
		CHANNELS 3 Xrotation Yrotation Zrotation
		JOINT mixamorig:LeftLeg
		{
			OFFSET 0.577358 -80.825211 -3.695000
			CHANNELS 3 Xrotation Yrotation Zrotation
			JOINT mixamorig:LeftFoot
			{
				OFFSET -0.577356 -83.370262 -6.520700
				CHANNELS 3 Xrotation Yrotation Zrotation
				JOINT mixamorig:LeftToeBase
				{
					OFFSET 0.750401 -20.798306 25.135401
					CHANNELS 3 Xrotation Yrotation Zrotation
					JOINT mixamorig:LeftToe_End
					{
						OFFSET -0.000500 0.001200 19.917799
						CHANNELS 3 Xrotation Yrotation Zrotation
						End Site
						{
							OFFSET 0.000000 19.917805 0.000000
						}
					}
				}
			}
		}
	}
	JOINT mixamorig:RightUpLeg
	{
		OFFSET -18.162500 -13.585098 -0.041000
		CHANNELS 3 Xrotation Yrotation Zrotation
		JOINT mixamorig:RightLeg
		{
			OFFSET -0.595024 -80.945297 -3.631900
			CHANNELS 3 Xrotation Yrotation Zrotation
			JOINT mixamorig:RightFoot
			{
				OFFSET 0.595024 -83.218193 -6.561200
				CHANNELS 3 Xrotation Yrotation Zrotation
				JOINT mixamorig:RightToeBase
				{
					OFFSET -0.753601 -20.807106 25.115000
					CHANNELS 3 Xrotation Yrotation Zrotation
					JOINT mixamorig:RightToe_End
					{
						OFFSET 0.000299 0.001700 19.918200
						CHANNELS 3 Xrotation Yrotation Zrotation
						End Site
						{
							OFFSET 0.000000 19.918203 0.000000
						}
					}
				}
			}
		}
	}
}
MOTION
Frames: 4
Frame Time: 0.033333
-0.180307 121.306259 1.022644 0.143548 0.207427 0.985403 10.430001 -0.031741 -1.566544 -0.199540 0.212400 -0.344447 -0.199876 0.247534 -0.289869 -1.001767 -1.289393 0.469464 -8.883546 -4.332065 -5.322256 -0.000000 0.000000 -0.000000 -0.000000 0.000000 -0.000000 -0.000000 0.000000 -0.000000 0.823154 -15.262898 -7.869861 4.724242 -21.249676 -54.896676 0.000009 -62.154619 -0.000003 31.043971 4.302676 41.800833 1.296530 7.325419 -16.512302 0.329938 1.940022 -19.301455 0.233123 1.637761 -16.201248 -0.000001 0.000000 -0.000001 6.613596 1.809789 20.803254 2.716360 20.172586 -24.388999 -5.534466 29.849665 5.067421 0.000001 0.000000 -0.000000 -0.237814 2.796193 -26.913254 0.396829 2.121271 -21.189294 0.083138 0.984446 -9.653149 0.000001 -0.000002 -0.000001 1.797331 9.808982 -14.181851 0.205964 1.541275 -15.222308 0.265316 1.744695 -17.292067 -0.000002 -0.000001 0.000001 2.041181 10.867567 -13.918929 0.168523 1.396453 -13.761329 0.107157 1.116558 -10.963894 0.000000 0.000001 -0.000000 3.176865 -4.379271 8.781275 -3.924738 37.229056 63.691685 -0.000007 55.173110 0.000018 43.553398 4.735668 -36.248780 0.105960 -3.674529 2.524722 0.584983 -2.261663 29.000102 0.020470 -0.436583 5.367125 0.000002 0.000000 -0.000002 -9.384267 -1.617674 -17.605555 3.557098 -24.337041 34.656848 -6.607971 -37.497325 -11.175427 0.000001 -0.000006 -0.000000 2.950778 1.027789 13.530753 0.472462 -2.045698 26.006736 0.059762 -0.744400 9.177800 0.000002 0.000001 0.000002 0.456334 -7.645307 4.303867 0.107487 -0.995860 12.320910 0.072394 -0.818822 10.104481 -0.000001 -0.000000 -0.000001 -11.164398 -10.228182 7.169690 0.029116 -0.520514 6.403071 0.028659 -0.516340 6.351586 0.000001 0.000000 -0.000002 -91.022980 -4.564384 9.644394 82.465969 9.875841 0.247736 9.684435 -6.235592 -3.847240 -0.167881 0.000004 0.000001 0.000000 -0.000000 -0.000000 -90.779122 8.360141 -8.426968 83.173625 -2.226154 -1.888349 8.806860 0.330583 8.501280 -0.104528 0.000002 0.000002 -0.000000 -0.000001 -0.000000 
-0.174665 121.162506 0.888404 0.389694 0.262241 1.188430 10.444671 -0.067087 -1.628309 -0.173007 0.199381 -0.471190 -0.173654 0.231352 -0.416299 -0.806340 -1.288081 0.490991 -8.645123 -4.275517 -5.380639 -0.000000 0.000000 -0.000000 -0.000000 0.000000 -0.000000 -0.000000 0.000000 -0.000000 0.836092 -15.322573 -7.722993 4.986031 -21.190688 -54.715010 -0.000041 -62.785790 -0.000040 31.210208 4.553428 41.804678 1.285464 7.315166 -16.384592 0.329038 1.937480 -19.275183 0.230089 1.627272 -16.094574 -0.000000 0.000000 0.000002 6.573989 1.814351 20.817872 2.685514 20.182746 -24.377445 -5.551885 29.775612 5.054278 -0.000001 -0.000001 0.000003 -0.240092 2.785805 -26.798782 0.395551 2.117982 -21.154773 0.081620 0.975562 -9.565122 -0.000001 -0.000002 0.000001 1.781906 9.800662 -14.062747 0.203698 1.532896 -15.137513 0.262820 1.736678 -17.209802 -0.000000 0.000001 -0.000003 2.019137 10.865538 -13.801511 0.165803 1.385301 -13.649537 0.104149 1.100874 -10.807939 -0.000001 0.000000 -0.000001 3.184798 -4.461241 8.766987 -3.566318 37.527634 63.403669 0.000000 55.773180 -0.000003 42.531755 4.698564 -36.094114 0.102402 -3.662730 2.377709 0.582846 -2.257812 28.946270 0.019522 -0.426464 5.242343 -0.000001 0.000000 0.000003 -9.401084 -1.606058 -17.639363 3.576996 -24.403670 34.738721 -6.606585 -37.423068 -11.137508 0.000001 -0.000002 0.000000 2.959150 1.032033 13.397062 0.470489 -2.041659 25.951548 0.058223 -0.734900 9.059624 0.000002 -0.000001 -0.000001 0.443350 -7.640813 4.159779 0.105608 -0.987216 12.211872 0.070999 -0.810934 10.006278 -0.000001 -0.000000 0.000001 -11.183131 -10.197560 7.022193 0.027879 -0.509293 6.264434 0.028641 -0.516344 6.351548 0.000002 -0.000000 -0.000002 -91.303599 -4.492459 9.430032 82.386520 9.878079 0.211972 9.820893 -6.041616 -3.906466 -0.167902 0.000003 -0.000001 0.000000 0.000001 0.000000 -91.148130 8.601643 -8.482772 83.181841 -2.217301 -1.888275 8.927644 0.369158 8.517785 -0.102594 -0.000006 -0.000000 -0.000000 0.000000 -0.000000 
-0.176426 121.098557 0.587047 0.616358 0.325516 1.257757 10.576828 -0.074419 -1.643016 0.084519 0.206464 -0.535769 0.083801 0.236945 -0.481153 -0.690135 -1.301428 0.490918 -8.761881 -4.320764 -5.400116 0.000000 -0.000000 -0.000000 0.000000 -0.000000 -0.000000 0.000000 -0.000000 -0.000000 0.854187 -15.387784 -7.492719 4.988456 -21.406873 -54.473043 -0.000029 -63.443039 -0.000036 31.319426 4.887035 42.054270 1.260089 7.291481 -16.090445 0.326953 1.931473 -19.213139 0.223120 1.603027 -15.848074 0.000002 0.000001 -0.000000 6.480994 1.825037 20.851311 2.648465 20.168111 -24.354592 -5.588298 29.596292 5.018401 0.000001 -0.000000 0.000003 -0.251786 2.760894 -26.534643 0.392601 2.110359 -21.075029 0.078201 0.955017 -9.361742 0.000000 0.000001 0.000001 1.746135 9.780457 -13.787592 0.198487 1.513522 -14.941735 0.257088 1.718056 -17.019740 -0.000001 0.000000 -0.000002 1.965320 10.864065 -13.530079 0.159615 1.359576 -13.391208 0.097333 1.064599 -10.447597 0.000000 0.000000 0.000003 3.195736 -4.697927 8.622900 -3.522069 38.152648 63.089153 0.000006 56.404508 -0.000002 41.390076 4.678047 -36.035661 0.094315 -3.635443 2.038587 0.577948 -2.248929 28.821438 0.017438 -0.403045 4.953876 -0.000001 0.000001 -0.000003 -9.434652 -1.580376 -17.718178 3.609279 -24.429722 34.807679 -6.616790 -37.209528 -11.050309 -0.000002 -0.000001 -0.000003 2.971692 1.040244 13.088446 0.465960 -2.032315 25.823883 0.054776 -0.712938 8.786448 0.000001 -0.000002 -0.000003 0.413699 -7.633950 3.827834 0.101295 -0.967060 11.958876 0.067829 -0.792707 9.779136 -0.000001 0.000000 -0.000004 -11.226189 -10.126977 6.681593 0.025098 -0.483356 5.944102 0.028656 -0.516328 6.351520 -0.000003 0.000001 -0.000002 -91.530177 -4.544953 9.183090 82.143454 9.411098 0.173347 10.082235 -5.354223 -4.027885 -0.167924 -0.000004 0.000001 0.000000 0.000000 0.000000 -91.391599 8.787669 -8.419162 82.993246 -2.378509 -1.895085 9.155894 0.439499 8.612384 -0.099032 -0.000004 -0.000001 -0.000000 0.000000 -0.000000 
-0.203434 121.117325 0.188328 0.901178 0.405141 1.241480 10.819379 -0.061274 -1.645349 0.560592 0.255914 -0.557042 0.560026 0.285105 -0.503052 -0.636789 -1.320553 0.453567 -8.990283 -4.488392 -5.267758 -0.000000 -0.000000 -0.000000 -0.000000 -0.000000 -0.000000 -0.000000 -0.000000 -0.000000 0.878605 -15.319749 -7.169902 4.663787 -21.962649 -54.237234 0.000031 -64.160864 0.000052 31.547814 5.288481 42.435269 1.221431 7.254895 -15.639996 0.323696 1.922131 -19.116713 0.212674 1.565720 -15.469844 -0.000000 -0.000001 0.000000 6.337548 1.841312 20.902310 2.605619 20.130297 -24.320630 -5.644248 29.317699 4.961827 0.000000 0.000003 0.000004 -0.273571 2.717673 -26.129932 0.388109 2.098671 -20.952620 0.073084 0.923453 -9.049696 -0.000000 -0.000001 -0.000002 1.691583 9.749684 -13.365499 0.190627 1.483749 -14.641204 0.248425 1.689507 -16.728086 -0.000002 0.000001 -0.000001 1.882248 10.861772 -13.113664 0.150344 1.320052 -12.994835 0.087327 1.008845 -9.894694 0.000002 0.000001 -0.000000 3.230419 -5.151105 8.447215 -3.661805 39.046508 62.626018 -0.000006 57.264753 0.000011 40.197419 4.604520 -36.060960 0.082208 -3.593499 1.518692 0.570431 -2.235244 28.629281 0.014473 -0.367104 4.511190 0.000003 0.000000 -0.000000 -9.483637 -1.544363 -17.840418 3.626377 -24.441035 34.855859 -6.639267 -36.868818 -10.919641 -0.000001 -0.000002 -0.000004 2.985989 1.051597 12.615055 0.459032 -2.017936 25.627959 0.049673 -0.679151 8.367252 0.000001 0.000000 -0.000005 0.368137 -7.623848 3.318472 0.094847 -0.936100 11.570714 0.063076 -0.764712 9.430552 -0.000004 0.000002 -0.000004 -11.291682 -10.018417 6.159211 0.021111 -0.443497 5.452619 0.028653 -0.516332 6.351659 -0.000003 -0.000001 -0.000000 -91.760443 -4.709281 8.883879 81.757931 8.531236 0.133074 10.430862 -4.230618 -4.254172 -0.167877 -0.000000 0.000000 -0.000000 -0.000000 0.000000 -91.596969 8.970031 -8.253093 82.654599 -2.736885 -1.910304 9.454952 0.577269 8.773152 -0.094911 -0.000002 -0.000000 -0.000000 0.000000 0.000000 
